# Blender v2.72 (sub 0) OBJ File: ''
# www.blender.org
mtllib luz.mtl
o Sphere
v -0.382683 0.923880 0.000000
v -0.707107 0.707107 0.000000
v -0.923880 0.382683 0.000000
v -1.000000 -0.000000 0.000000
v -0.923880 -0.382684 0.000000
v -0.707107 -0.707107 0.000000
v -0.382683 -0.923880 0.000000
v -0.000000 -1.000000 0.000000
v -0.270598 0.923880 -0.270598
v -0.500000 0.707107 -0.500000
v -0.653282 0.382683 -0.653281
v -0.707107 -0.000000 -0.707107
v -0.653282 -0.382684 -0.653281
v -0.500000 -0.707107 -0.500000
v -0.270598 -0.923880 -0.270598
v -0.000000 0.923880 -0.382683
v -0.000000 0.707107 -0.707107
v -0.000000 0.382683 -0.923879
v -0.000000 -0.000000 -1.000000
v -0.000000 -0.382684 -0.923879
v -0.000000 -0.707107 -0.707107
v -0.000000 -0.923880 -0.382683
v -0.000000 1.000000 0.000000
v 0.270598 0.923880 -0.270598
v 0.500000 0.707107 -0.500000
v 0.653281 0.382683 -0.653281
v 0.707106 -0.000000 -0.707107
v 0.653281 -0.382684 -0.653281
v 0.500000 -0.707107 -0.500000
v 0.270598 -0.923880 -0.270598
v 0.382683 0.923880 -0.000000
v 0.707106 0.707107 -0.000000
v 0.923879 0.382683 -0.000000
v 1.000000 -0.000000 -0.000000
v 0.923879 -0.382684 -0.000000
v 0.707106 -0.707107 -0.000000
v 0.382683 -0.923880 -0.000000
v 0.270598 0.923880 0.270598
v 0.500000 0.707107 0.500000
v 0.653281 0.382683 0.653281
v 0.707106 -0.000000 0.707107
v 0.653281 -0.382684 0.653281
v 0.500000 -0.707107 0.500000
v 0.270598 -0.923880 0.270598
v -0.000000 0.923880 0.382683
v -0.000000 0.707107 0.707107
v -0.000000 0.382683 0.923879
v -0.000000 -0.000000 1.000000
v -0.000000 -0.382684 0.923879
v -0.000000 -0.707107 0.707107
v -0.000000 -0.923880 0.382683
v -0.270598 0.923880 0.270598
v -0.500000 0.707107 0.500000
v -0.653281 0.382683 0.653281
v -0.707107 -0.000000 0.707107
v -0.653281 -0.382684 0.653281
v -0.500000 -0.707107 0.500000
v -0.270598 -0.923880 0.270598
vn -0.541400 -0.810300 -0.224300
vn -0.786200 -0.525300 -0.325600
vn -0.908700 -0.180700 -0.376400
vn -0.908700 0.180700 -0.376400
vn -0.786200 0.525300 -0.325600
vn -0.541400 0.810300 -0.224300
vn -0.224300 -0.810300 -0.541400
vn -0.325600 -0.525300 -0.786200
vn -0.376400 -0.180700 -0.908700
vn -0.376400 0.180700 -0.908700
vn -0.325600 0.525300 -0.786200
vn -0.224300 0.810300 -0.541400
vn 0.224300 -0.810300 -0.541400
vn 0.325600 -0.525300 -0.786200
vn 0.376400 -0.180700 -0.908700
vn 0.376400 0.180700 -0.908700
vn 0.325600 0.525300 -0.786200
vn 0.224300 0.810300 -0.541400
vn 0.541400 -0.810300 -0.224300
vn 0.786200 -0.525300 -0.325600
vn 0.908700 -0.180700 -0.376400
vn 0.908700 0.180700 -0.376400
vn 0.786200 0.525300 -0.325600
vn 0.541400 0.810300 -0.224300
vn 0.541400 -0.810300 0.224300
vn 0.786200 -0.525300 0.325600
vn 0.908700 -0.180700 0.376400
vn 0.908700 0.180700 0.376400
vn 0.786200 0.525300 0.325600
vn 0.541400 0.810300 0.224300
vn 0.224300 -0.810300 0.541400
vn 0.325600 -0.525300 0.786200
vn 0.376400 -0.180700 0.908700
vn 0.376400 0.180700 0.908700
vn 0.325600 0.525300 0.786200
vn 0.224300 0.810300 0.541400
vn -0.224300 -0.810300 0.541400
vn -0.325600 -0.525300 0.786200
vn -0.376400 -0.180700 0.908700
vn -0.376400 0.180700 0.908700
vn -0.325600 0.525300 0.786200
vn -0.224300 0.810300 0.541400
vn -0.194500 -0.977600 -0.080500
vn -0.194500 0.977600 -0.080500
vn -0.080500 -0.977600 -0.194500
vn -0.080500 0.977600 -0.194500
vn 0.080500 -0.977600 -0.194500
vn 0.080500 0.977600 -0.194500
vn 0.194500 -0.977600 -0.080500
vn 0.194500 0.977600 -0.080500
vn 0.194500 -0.977600 0.080500
vn 0.194500 0.977600 0.080500
vn 0.080500 -0.977600 0.194500
vn 0.080500 0.977600 0.194500
vn -0.080500 -0.977600 0.194500
vn -0.080500 0.977600 0.194500
vn -0.194500 -0.977600 0.080500
vn -0.541400 -0.810300 0.224300
vn -0.786200 -0.525300 0.325600
vn -0.908700 -0.180700 0.376400
vn -0.908700 0.180700 0.376400
vn -0.786200 0.525300 0.325600
vn -0.541400 0.810300 0.224300
vn -0.194500 0.977600 0.080500
usemtl None
s off
f 6//1 14//1 15//1
f 5//2 13//2 14//2
f 4//3 12//3 13//3
f 4//4 3//4 11//4
f 3//5 2//5 10//5
f 1//6 9//6 10//6
f 14//7 21//7 22//7
f 13//8 20//8 21//8
f 12//9 19//9 20//9
f 11//10 18//10 19//10
f 10//11 17//11 18//11
f 9//12 16//12 17//12
f 22//13 21//13 29//13
f 20//14 28//14 29//14
f 19//15 27//15 28//15
f 18//16 26//16 27//16
f 18//17 17//17 25//17
f 17//18 16//18 24//18
f 29//19 36//19 37//19
f 28//20 35//20 36//20
f 27//21 34//21 35//21
f 26//22 33//22 34//22
f 25//23 32//23 33//23
f 24//24 31//24 32//24
f 36//25 43//25 44//25
f 35//26 42//26 43//26
f 35//27 34//27 41//27
f 33//28 40//28 41//28
f 33//29 32//29 39//29
f 31//30 38//30 39//30
f 43//31 50//31 51//31
f 42//32 49//32 50//32
f 41//33 48//33 49//33
f 40//34 47//34 48//34
f 40//35 39//35 46//35
f 39//36 38//36 45//36
f 50//37 57//37 58//37
f 49//38 56//38 57//38
f 48//39 55//39 56//39
f 47//40 54//40 55//40
f 47//41 46//41 53//41
f 46//42 45//42 52//42
f 8//43 7//43 15//43
f 1//44 23//44 9//44
f 8//45 15//45 22//45
f 9//46 23//46 16//46
f 8//47 22//47 30//47
f 16//48 23//48 24//48
f 8//49 30//49 37//49
f 24//50 23//50 31//50
f 8//51 37//51 44//51
f 31//52 23//52 38//52
f 8//53 44//53 51//53
f 38//54 23//54 45//54
f 8//55 51//55 58//55
f 45//56 23//56 52//56
f 8//57 58//57 7//57
f 58//58 57//58 6//58
f 57//59 56//59 5//59
f 55//60 4//60 5//60
f 54//61 3//61 4//61
f 53//62 2//62 3//62
f 52//63 1//63 2//63
f 52//64 23//64 1//64
f 7//1 6//1 15//1
f 6//2 5//2 14//2
f 5//3 4//3 13//3
f 12//4 4//4 11//4
f 11//5 3//5 10//5
f 2//6 1//6 10//6
f 15//7 14//7 22//7
f 14//8 13//8 21//8
f 13//9 12//9 20//9
f 12//10 11//10 19//10
f 11//11 10//11 18//11
f 10//12 9//12 17//12
f 30//13 22//13 29//13
f 21//14 20//14 29//14
f 20//15 19//15 28//15
f 19//16 18//16 27//16
f 26//17 18//17 25//17
f 25//18 17//18 24//18
f 30//19 29//19 37//19
f 29//20 28//20 36//20
f 28//21 27//21 35//21
f 27//22 26//22 34//22
f 26//23 25//23 33//23
f 25//24 24//24 32//24
f 37//25 36//25 44//25
f 36//26 35//26 43//26
f 42//27 35//27 41//27
f 34//28 33//28 41//28
f 40//29 33//29 39//29
f 32//30 31//30 39//30
f 44//31 43//31 51//31
f 43//32 42//32 50//32
f 42//33 41//33 49//33
f 41//34 40//34 48//34
f 47//35 40//35 46//35
f 46//36 39//36 45//36
f 51//37 50//37 58//37
f 50//38 49//38 57//38
f 49//39 48//39 56//39
f 48//40 47//40 55//40
f 54//41 47//41 53//41
f 53//42 46//42 52//42
f 7//58 58//58 6//58
f 6//59 57//59 5//59
f 56//60 55//60 5//60
f 55//61 54//61 4//61
f 54//62 53//62 3//62
f 53//63 52//63 2//63
